# xmcd
# Copyright (C) 1995-1998 Ti Kan
#
# Track frame offsets:
#       150
#       14367
#       29403
#       52837
#       71403
#       86659
#       106996
#       125459
#       141576
#       156917
#       176947
#       186252
#       204524
#
# Disc length: 2936 seconds
#
# Revision: 0
# Processed by: cddbd v1.5.2PL0 Copyright (c) Steve Scherf et al.
# Submitted via: CD-Import v1.0
#
DISCID=b90b760d
DTITLE=Apocalyptica - Reflections
DYEAR=03
DGENRE=
TTITLE0=Prologue (Apprehension)
TTITLE1=No Education
TTITLE2=Faraway
TTITLE3=Somewhere Around Nothing
TTITLE4=Drive
TTITLE5=Cohkka
TTITLE6=Conclusion
TTITLE7=Resurrection
TTITLE8=Heat
TTITLE9=Cortège
TTITLE10=Pandemonium
TTITLE11=Toreador 2
TTITLE12=Epilogue (Relief)
EXTD=
EXTT0=
EXTT1=
EXTT2=
EXTT3=
EXTT4=
EXTT5=
EXTT6=
EXTT7=
EXTT8=
EXTT9=
EXTT10=
EXTT11=
EXTT12=
PLAYORDER=
